<svg xmlns="http://www.w3.org/2000/svg" viewBox="0 0 32 32" width="32" height="32" role="img" aria-label="WhatsApp">
  <path fill="#25D366" d="M16 0C7.164 0 0 7.164 0 16c0 2.824.736 5.476 2.02 7.78L0 32l8.44-2.212A15.93 15.93 0 0 0 16 32c8.836 0 16-7.164 16-16S24.836 0 16 0z"/>
  <path fill="#FFFFFF" d="M23.47 19.49c-.39-.196-2.3-1.135-2.657-1.265-.356-.13-.616-.196-.875.196-.26.39-1.004 1.265-1.23 1.524-.227.26-.454.293-.844.098-.39-.196-1.646-.607-3.135-1.934-1.158-1.033-1.94-2.31-2.167-2.7-.227-.39-.024-.6.17-.795.176-.175.39-.456.585-.684.196-.228.26-.39.39-.65.13-.26.065-.488-.033-.684-.098-.196-.875-2.11-1.2-2.89-.316-.758-.637-.656-.875-.668l-.746-.013c-.26 0-.683.098-1.04.488-.357.39-1.364 1.33-1.364 3.245s1.397 3.766 1.592 4.025c.196.26 2.75 4.2 6.663 5.89.93.402 1.657.642 2.223.822.934.297 1.784.255 2.456.155.75-.112 2.3-.94 2.624-1.85.325-.91.325-1.69.227-1.85-.097-.16-.357-.26-.746-.455z"/>
</svg>
